<svg width="80" height="64" viewBox="0 0 80 64" fill="none" xmlns="http://www.w3.org/2000/svg">
<g clip-path="url(#clip0_50069_2743)">
<path d="M36.2071 62.3817L37.7448 52.3638C37.8063 52.0155 37.9703 51.7082 38.2574 51.4419C38.5854 51.1346 38.9749 50.9912 39.385 50.9912C39.795 50.9912 40.1436 51.1141 40.4511 51.3805C40.7586 51.6468 40.9637 51.9336 41.0457 52.2819L43.0344 59.3907L45.0436 52.2819C45.1461 51.9336 45.3512 51.6468 45.6382 51.4009C45.9662 51.1346 46.3353 50.9912 46.7248 50.9912C47.1554 50.9912 47.5244 51.1346 47.8319 51.4009C48.1395 51.6673 48.3035 51.9951 48.365 52.3433L49.9437 62.3612V62.689C49.9437 63.0783 49.8207 63.3856 49.5951 63.6314C49.3696 63.8773 49.0826 63.9797 48.734 63.9797C48.324 63.9797 48.0165 63.8773 47.8319 63.6929C47.6474 63.488 47.5039 63.1807 47.4219 62.73L46.4583 55.4163L44.4081 62.9554C44.326 63.2627 44.203 63.488 44.039 63.6314C43.8135 63.8773 43.4854 63.9797 43.0754 63.9797C42.6654 63.9797 42.3578 63.8568 42.1118 63.6314C41.9273 63.447 41.8043 63.2217 41.7428 62.9554L39.7335 55.4163L38.6879 62.73C38.6264 63.1602 38.5034 63.488 38.3189 63.6724C38.1138 63.8773 37.8063 63.9797 37.3963 63.9797C37.0477 63.9797 36.7607 63.8568 36.5352 63.6314C36.3096 63.4061 36.1866 63.0783 36.1866 62.689C36.1661 62.5456 36.1866 62.4432 36.2071 62.3817Z" fill="black"/>
<path d="M55.7458 58.5504C55.2127 58.8577 54.7822 59.0012 54.2081 59.0012C53.6546 59.0012 53.306 58.8987 52.978 58.6529C52.6705 58.4275 52.4859 58.0793 52.4449 57.7925C52.4449 57.7515 52.4654 57.69 52.5064 57.6695C53.5521 57.6286 55.3768 57.5466 55.8073 57.4237C55.8483 57.3827 55.9303 57.0754 55.9303 57.014C55.8278 56.9935 55.7048 56.9115 55.6843 56.8501C55.5818 56.215 55.0897 55.1907 53.6136 55.1907C53.0805 55.1907 52.5064 55.3545 52.0759 55.5799C51.3788 55.9691 50.8663 56.6862 50.8663 57.649C50.8663 58.2841 51.0918 59.0216 51.6659 59.4928C52.0554 59.8206 52.5885 60.0255 53.388 60.0255C54.1466 60.0255 55.1717 59.6977 55.7253 59.0831C55.7458 59.0216 55.8278 58.7553 55.8073 58.6324C55.8073 58.6119 55.7663 58.5709 55.7458 58.5504ZM53.2445 55.7643C53.7776 55.7643 54.1056 56.256 54.1876 56.9115C54.1671 56.9525 54.1466 56.9935 54.0851 57.014C53.8596 57.0549 52.896 57.0549 52.5064 57.0549C52.4449 57.0549 52.4039 56.9935 52.4039 56.973C52.4449 56.3174 52.7525 55.7643 53.2445 55.7643ZM63.1881 59.1446C62.8601 59.1446 62.6756 59.1446 62.5321 59.1241C62.3886 59.1036 62.3065 59.0216 62.3065 58.7758V56.9525C62.3065 55.2726 62.3271 54.4327 62.3476 53.7771C62.3681 53.2239 62.3475 53.0396 62.4911 52.8552C62.5116 52.8142 62.4501 52.6298 62.3886 52.5889C61.8965 52.7528 60.5023 52.9166 59.7233 52.9166C59.6412 52.9576 59.6207 53.3264 59.6617 53.3878C59.9693 53.4288 60.2563 53.4493 60.4613 53.5108C60.6869 53.5927 60.7279 53.7361 60.7484 53.9205C60.7689 54.2073 60.7689 54.5351 60.7689 55.1702C60.7689 55.2111 60.7279 55.2316 60.7074 55.2316C60.5844 55.2111 60.4203 55.2111 60.2973 55.2111C59.4567 55.2111 58.3701 55.5389 57.8575 55.9077C57.263 56.2969 56.8529 56.973 56.8529 57.772C56.8529 58.3866 57.0785 59.0012 57.4475 59.3904C57.796 59.7592 58.3291 60.005 58.9237 60.005C59.3337 60.005 60.0513 59.7387 60.6664 59.3904C60.6869 59.3699 60.7279 59.4109 60.7279 59.4314C60.7484 59.6158 60.7484 59.8616 60.7689 59.964C60.7894 60.005 60.8509 60.0869 60.8919 60.0869C61.2199 60.0869 62.5936 59.8411 63.0856 59.6567C63.1266 59.6158 63.2087 59.206 63.1881 59.1446ZM59.6002 55.8257C59.8873 55.8257 60.2153 55.8872 60.4613 56.0511C60.7074 56.215 60.7484 56.3789 60.7484 56.6042C60.7484 57.2393 60.7484 58.3661 60.7279 58.6529C60.7279 58.7758 60.7074 58.8578 60.6459 58.8987C60.4613 59.0216 60.1948 59.0831 60.0103 59.0831C59.0877 59.0831 58.4521 58.4275 58.4521 57.2598C58.4521 56.6657 58.6571 56.2764 58.9032 56.0511C59.1287 55.8872 59.3747 55.8257 59.6002 55.8257ZM66.7555 59.4519C66.448 59.4109 66.325 59.3699 66.202 59.3494C66.038 59.3085 65.956 59.1855 65.956 58.8987C65.9355 58.3866 65.9355 57.731 65.9355 57.1369V55.2111C65.2999 55.416 64.0287 55.5799 63.7007 55.5799C63.6392 55.6414 63.5777 55.9282 63.6392 56.0101C64.0697 56.133 64.1928 56.215 64.2953 56.3174C64.3568 56.3584 64.3773 56.4813 64.3773 56.5633V57.5671C64.3773 58.1202 64.3773 58.6939 64.3568 58.9602C64.3363 59.206 64.3363 59.288 64.1723 59.3494C64.0287 59.3904 63.8852 59.4109 63.6187 59.4519C63.5367 59.5133 63.5777 59.8821 63.6187 59.9435C63.9057 59.9435 64.4183 59.9026 65.0949 59.9026C66.0585 59.9026 66.5095 59.9435 66.694 59.9435C66.776 59.8821 66.8376 59.5133 66.7555 59.4519ZM65.915 53.7976C65.915 53.6951 65.8944 53.4698 65.7919 53.3674C65.7304 53.3059 65.5254 53.2444 65.2179 53.2444C64.8693 53.2444 64.4388 53.3469 64.2543 53.5312C64.1518 53.6337 64.1518 53.9615 64.1723 54.0434C64.2748 54.3507 64.4183 54.4736 64.6233 54.5556C64.7463 54.617 65.4639 54.5965 65.5664 54.4941C65.7714 54.3302 65.915 54.0229 65.915 53.7976ZM75.2025 59.165C74.8745 59.165 74.772 58.9602 74.772 58.5914C74.7925 58.1817 75.018 57.1369 75.2435 56.1945C75.3255 55.8257 75.428 55.6004 75.5305 55.3546C75.2025 55.2931 74.7925 55.1907 74.0544 55.1907C73.0703 55.1907 71.7581 55.8462 71.2866 56.3174C70.6305 56.9115 70.0974 57.9154 70.0974 58.8577C70.0974 59.3699 70.2614 60.0665 70.897 60.0665C71.4711 60.0665 72.5372 59.4724 73.2753 58.6324C73.2958 58.5914 73.3368 58.6119 73.3368 58.6529C73.2753 58.9807 73.2753 59.1651 73.2548 59.3289C73.2343 59.6772 73.3778 60.0869 73.9519 60.0869C75.6741 60.0869 77.9293 58.9807 77.9293 56.4813C77.9293 54.9858 76.5967 53.1215 73.8288 53.1215C72.1067 53.1215 70.569 53.7156 69.3593 54.8014C68.3137 55.7233 67.6576 56.973 67.6576 58.4275C67.6576 61.3571 70.2614 62.3814 71.0405 62.3814C71.4301 62.3814 72.0451 62.2995 72.3527 62.0537C72.3732 62.0127 72.3732 61.8488 72.3527 61.8283C72.0041 61.8693 71.4506 61.7873 71.143 61.7259C70.0154 61.48 68.8468 60.4147 68.8468 58.3456C68.8468 55.0268 71.5736 53.8181 73.2548 53.8181C75.182 53.8181 76.9862 54.7195 76.9862 57.014C76.9657 58.407 75.9816 59.165 75.2025 59.165ZM72.0451 58.8373C71.8196 58.8373 71.6146 58.6324 71.6351 58.0997C71.6351 57.5876 71.7991 57.0549 72.0041 56.6862C72.3732 56.0921 72.7627 55.9487 73.2343 55.9487C73.4803 55.9487 73.7878 55.9896 73.9929 56.0921C73.9314 56.215 73.8288 56.5223 73.7673 56.7271C73.5828 57.3827 73.5008 57.5876 73.3573 57.7925C72.8447 58.53 72.3732 58.8373 72.0451 58.8373Z" fill="black"/>
<path fill-rule="evenodd" clip-rule="evenodd" d="M80.0001 0C76.1866 11.6773 71.2251 23.7849 63.0241 32.8809C53.9006 42.1613 39.6105 42.653 29.7694 43.1037C19.9283 43.5544 11.9324 43.4725 6.72481 46.0743C1.51723 48.6761 0.840652 53.1421 0.840652 53.1421L1.35321 50.3764L4.96162 45.2138L23.5162 38.9449L50.3332 35.1754L67.8832 24.338L74.69 12.0256L78.7904 2.68374L80.0001 0Z" fill="black"/>
<path fill-rule="evenodd" clip-rule="evenodd" d="M72.0247 16.2461C72.0452 16.2461 69.6874 20.6302 65.1154 23.4574C61.9785 25.4036 57.9191 26.5303 53.5521 26.7147C47.6884 26.9606 42.7679 26.6533 39.0365 27.4727C35.5716 28.2307 32.5167 29.4189 31.4096 34.4177C31.4096 34.4177 31.0611 29.4394 37.1502 26.4279C43.2394 23.3959 58.5342 24.6251 63.5777 22.1872C65.669 21.1834 67.6167 20.2819 69.3389 18.8684C70.3435 18.0284 71.2251 17.3524 72.0247 16.2461Z" fill="black"/>
<path fill-rule="evenodd" clip-rule="evenodd" d="M45.0231 21.1217C44.1415 19.913 42.2758 17.3112 33.7469 20.1384C27.2271 22.2895 21.7735 24.3381 16.812 23.2933C13.6956 22.6377 11.4404 20.5276 9.2466 18.2946C5.96623 14.9143 3.60847 11.4726 3.77249 11.3906L5.49468 13.5417L10.5793 18.2126L19.1492 22.0027L32.5782 19.1141L40.0821 17.7619L42.4398 18.438L44.1005 19.6262L44.6746 20.3842L44.9411 20.8759L45.0231 21.1217Z" fill="black"/>
<path fill-rule="evenodd" clip-rule="evenodd" d="M3.77248 11.3903C3.77248 11.3903 10.4357 20.0766 18.2881 20.0356C22.9421 20.0151 28.4368 18.5811 33.0908 17.7411C35.0385 17.3928 36.9452 17.1675 38.4829 17.1675C40.8611 17.147 44.6131 18.3557 45.0231 21.1214C45.0231 21.1214 43.2804 16.4914 34.4029 19.2571C27.0221 21.5721 20.7689 23.4773 15.8688 22.1047C14.7207 21.777 13.6751 21.2648 12.7525 20.6707C10.7433 19.3595 9.04157 17.4953 7.38089 15.7334C5.14613 13.316 3.58796 11.3493 3.77248 11.3903Z" fill="#FF7506"/>
<path fill-rule="evenodd" clip-rule="evenodd" d="M0.840645 53.1421C0.840645 53.1421 0.369092 49.8848 3.34193 46.3201C5.37165 43.8822 9.22609 41.2804 15.1513 39.6415C29.7284 35.5851 48.9391 34.0487 55.0898 31.283C61.2199 28.5173 66.7966 24.2766 69.4209 20.3636C72.0247 16.4507 71.9632 16.3278 72.0042 16.3278C72.0247 16.3278 69.9129 20.0563 65.2179 22.6581C63.2292 23.7644 60.2358 25.0755 57.509 25.3828C48.283 26.4072 42.9729 25.6287 38.8724 26.7145C34.772 27.8003 33.2958 29.4187 32.3322 31.3854C31.3686 33.3316 31.4301 34.4379 31.4301 34.4379C31.4301 34.4379 30.938 28.8656 37.0272 25.8335C43.1164 22.8015 59.0877 22.5352 64.1108 20.0768C66.202 19.073 68.1497 18.1716 69.8719 16.758C72.3117 14.7503 73.9109 12.1076 75.9611 7.9283C79.4875 0.758003 80.0001 0 80.0001 0C76.0636 10.4891 71.3686 22.8015 63.5572 30.7708C54.4337 40.0512 40.1436 40.9117 30.3025 41.3624C20.4614 41.8131 12.0759 42.4481 6.86832 45.0499C1.66074 47.6517 0.840645 53.1421 0.840645 53.1421Z" fill="#FF7506"/>
<path d="M3.34193 53.3672H6.23275L9.34911 60.0048H6.49928L6.15075 59.1239H3.34193L3.01389 60.0048H0.225578L3.34193 53.3672ZM3.87499 57.7308H5.67919L4.75659 55.3544L3.87499 57.7308ZM10.3537 53.3672H13.2035V58.4479H17.099V59.9843H10.3332V53.3672H10.3537ZM17.8576 53.3672H25.8125V55.1085H23.2702V60.0048H20.4409V55.1085H17.8576V53.3672ZM29.4619 53.3672H32.3527L35.469 60.0048H32.6397L32.2912 59.1239H29.4619L29.1338 60.0048H26.366L29.4619 53.3672ZM29.9949 57.7308H31.7991L30.8765 55.3544L29.9949 57.7308Z" fill="#231F20" stroke="white" stroke-width="0.109501" stroke-miterlimit="2.6131"/>
<path d="M3.34193 53.3672H6.23275L9.34911 60.0048H6.49928L6.15075 59.1239H3.34193L3.01389 60.0048H0.225578L3.34193 53.3672ZM3.87499 57.7308H5.67919L4.75659 55.3544L3.87499 57.7308ZM10.3537 53.3672H13.2035V58.4479H17.099V59.9843H10.3332V53.3672H10.3537ZM17.8576 53.3672H25.8125V55.1085H23.2702V60.0048H20.4409V55.1085H17.8576V53.3672ZM29.4619 53.3672H32.3527L35.469 60.0048H32.6397L32.2912 59.1239H29.4619L29.1338 60.0048H26.366L29.4619 53.3672ZM29.9949 57.7308H31.7991L30.8765 55.3544L29.9949 57.7308Z" fill="white" stroke="black" stroke-width="0.290356"/>
</g>
<defs>
<clipPath id="clip0_50069_2743">
<rect width="80" height="64" fill="white"/>
</clipPath>
</defs>
</svg>
